# File created by Blade
# Date/Time:  Wed Jan 21 16:33:30 2015
# Frame Rate: 120.000 fps
#------------------------------------------------------
:FULLY-SPECIFIED
:DEGREES
1457
root 20.126481 35.675256 -24.449207 -3.266418 138.243418 -0.713402
Spine 0.485799 2.144859 0.255267
Head -4.294952 -31.737739 3.989371
LeftShoulder 0.561590 -17.001969 -7.369819
LeftArm 12.364197 79.396268 -73.668313
LeftForeArm 18.122430 -0.000000 23.749689
LeftHand 3.228062 -0.000000 -18.504356
LeftHandThumb1 -26.253704 0.000000 33.147579
RightShoulder -0.314401 -19.515617 4.475225
RightArm 49.790279 -41.860322 37.390519
RightForeArm -14.727037 0.000000 49.728788
RightHand 6.787755 -0.000000 6.223250
RightHandThumb1 -24.326973 -0.000000 -32.862282
LeftUpLeg -4.725257 -10.268811 -3.880947
LeftLeg 18.614438 -0.000000 -0.000000
LeftFoot -32.552523 27.288128 -14.494737
LeftToeBase 16.934262 -0.000000 -0.000000
RightUpLeg -1.979781 -7.449431 1.169207
RightLeg 10.513310 -0.000000 -0.000000
RightFoot -25.017647 -29.129907 13.543783
RightToeBase 16.127337 -0.000000 -0.000000
1458
root 20.123500 35.681665 -24.461277 -3.246977 136.568404 -0.600546
Spine 0.625136 1.776933 0.233549
Head -4.317560 -30.808398 4.364633
LeftShoulder 0.638515 -16.911756 -7.276520
LeftArm 13.161173 79.627466 -72.833753
LeftForeArm 18.343744 -0.000000 22.116548
LeftHand 2.794614 0.000000 -19.873701
LeftHandThumb1 -26.253704 0.000000 33.147579
RightShoulder -0.550773 -19.509917 4.656878
RightArm 48.578953 -40.904816 38.895749
RightForeArm -15.844767 0.000000 47.677217
RightHand 6.063094 -0.000000 6.815742
RightHandThumb1 -24.326973 -0.000000 -32.862282
LeftUpLeg -4.026702 -11.140916 -3.781521
LeftLeg 17.437941 -0.000000 -0.000000
LeftFoot -31.758402 26.531207 -14.179120
LeftToeBase 16.979784 -0.000000 -0.000000
RightUpLeg -1.965665 -6.632833 1.278605
RightLeg 10.322197 -0.000000 -0.000000
RightFoot -24.718924 -28.355259 13.486465
RightToeBase 15.834760 -0.000000 -0.000000
1459
root 20.116261 35.683710 -24.471717 -3.205219 134.852413 -0.468945
Spine 0.759695 1.365967 0.222964
Head -4.284435 -29.742941 4.683925
LeftShoulder 0.620484 -16.916144 -7.194198
LeftArm 13.184005 79.768767 -72.595178
LeftForeArm 18.829510 0.000000 20.794253
LeftHand 2.564111 -0.000000 -20.666746
LeftHandThumb1 -26.253704 0.000000 33.147579
RightShoulder -0.816370 -19.544387 4.869403
RightArm 47.554136 -39.782563 40.258500
RightForeArm -17.054008 -0.000000 45.561913
RightHand 5.451150 -0.000000 7.108766
RightHandThumb1 -24.326973 -0.000000 -32.862282
LeftUpLeg -3.315122 -11.928786 -3.694819
LeftLeg 16.271320 -0.000000 -0.000000
LeftFoot -30.900246 25.999384 -13.829978
LeftToeBase 16.863268 -0.000000 -0.000000
RightUpLeg -1.999419 -5.808464 1.392047
RightLeg 10.196403 -0.000000 -0.000000
RightFoot -24.486098 -27.584456 13.420451
RightToeBase 15.638558 -0.000000 -0.000000
1460
root 20.119578 35.684715 -24.481358 -3.234679 133.106035 -0.355911
Spine 0.943977 0.971661 0.135079
Head -4.219719 -28.625035 5.050955
LeftShoulder 0.456807 -16.645533 -7.009103
LeftArm 15.233207 79.918480 -70.231256
LeftForeArm 19.426001 0.000000 19.732681
LeftHand 2.320332 -0.000000 -21.712274
LeftHandThumb1 -26.253704 0.000000 33.147579
RightShoulder -1.122799 -19.589066 5.169860
RightArm 46.643390 -38.579736 41.574919
RightForeArm -18.922339 -0.000000 43.417985
RightHand 4.729814 -0.000000 6.881908
RightHandThumb1 -24.326973 -0.000000 -32.862282
LeftUpLeg -2.404893 -12.868055 -3.672879
LeftLeg 14.921155 -0.000000 -0.000000
LeftFoot -29.914016 25.955752 -13.401403
LeftToeBase 16.808589 -0.000000 -0.000000
RightUpLeg -1.949264 -5.009061 1.492283
RightLeg 10.045330 -0.000000 -0.000000
RightFoot -24.261745 -26.798638 13.378621
RightToeBase 15.399301 -0.000000 -0.000000
